<?xml version="1.0" standalone="no"?>
<!DOCTYPE svg PUBLIC "-//W3C//DTD SVG 20010904//EN"
 "http://www.w3.org/TR/2001/REC-SVG-20010904/DTD/svg10.dtd">
<svg version="1.0" xmlns="http://www.w3.org/2000/svg"
 width="128.000000pt" height="128.000000pt" viewBox="0 0 128.000000 128.000000"
 preserveAspectRatio="xMidYMid meet">
<metadata>
Created by potrace 1.15, written by Peter Selinger 2001-2017
</metadata>
<g transform="translate(0.000000,128.000000) scale(0.100000,-0.100000)"
fill="#000000" stroke="none">
<path d="M159 1257 c-77 -41 -129 -129 -129 -218 0 -69 50 -169 85 -169 6 0
38 30 70 66 66 75 151 135 228 160 62 20 77 31 77 55 0 26 -56 87 -101 110
-57 29 -171 27 -230 -4z"/>
<path d="M889 1261 c-20 -11 -50 -36 -67 -56 -48 -54 -41 -85 23 -101 85 -20
202 -99 260 -175 57 -75 98 -64 131 35 35 101 -5 218 -95 281 -38 27 -51 30
-129 33 -71 2 -94 -2 -123 -17z"/>
<path d="M495 1061 c-179 -51 -323 -199 -369 -377 -43 -167 -4 -340 109 -479
l46 -55 -26 -34 c-46 -60 -23 -116 48 -116 30 0 40 6 63 38 l28 38 58 -23
c112 -46 262 -46 382 -1 58 21 59 21 73 2 34 -48 44 -54 83 -54 64 0 80 56 36
121 l-25 36 26 24 c43 40 102 138 124 208 31 97 30 233 -3 327 -79 225 -277
365 -513 363 -44 0 -107 -8 -140 -18z m275 -166 c25 -8 67 -32 94 -53 222
-169 183 -511 -72 -630 -49 -23 -70 -27 -152 -27 -84 1 -102 4 -154 29 -79 38
-140 102 -179 184 -28 59 -32 77 -32 152 0 72 5 94 28 145 48 103 149 188 254
215 50 12 157 5 213 -15z"/>
<path d="M613 808 c-6 -7 -14 -58 -17 -112 -5 -62 -13 -108 -23 -122 -31 -48
11 -114 72 -114 24 0 55 -12 92 -36 79 -50 96 -56 122 -37 40 28 25 62 -49
109 -36 22 -77 53 -92 68 -26 26 -26 28 -21 126 4 72 2 104 -7 115 -15 18 -64
20 -77 3z"/>
</g>
</svg>
