<?xml version="1.0" encoding="UTF-8" standalone="no"?>
<!DOCTYPE svg PUBLIC "-//W3C//DTD SVG 1.1//EN" "http://www.w3.org/Graphics/SVG/1.1/DTD/svg11.dtd">
<svg version="1.1" xmlns="http://www.w3.org/2000/svg" xmlns:xlink="http://www.w3.org/1999/xlink" preserveAspectRatio="xMidYMid meet" viewBox="0 0 128 128" width="128" height="128"><defs><path d="M3.98 24.02C3.98 30.91 8.98 40.9 12.47 40.9C13.07 40.9 16.27 37.9 19.47 34.31C26.06 26.82 34.55 20.82 42.24 18.33C48.43 16.33 49.93 15.23 49.93 12.83C49.93 10.24 44.34 4.14 39.84 1.85C34.15 -1.05 22.76 -0.85 16.87 2.25C9.18 6.34 3.98 15.13 3.98 24.02Z" id="b53QepMXw"></path><path d="M83.09 7.44C78.29 12.83 78.99 15.93 85.38 17.53C93.87 19.52 105.56 27.42 111.35 35.01C117.05 42.5 121.14 41.4 124.44 31.51C127.93 21.42 123.94 9.74 114.95 3.44C111.15 0.75 109.85 0.45 102.06 0.15C94.97 -0.05 92.68 0.35 89.78 1.85C87.78 2.95 84.79 5.44 83.09 7.44Z" id="fwG9w5yac"></path><path d="M13.57 59.48C9.28 76.16 13.17 93.44 24.46 107.32C24.77 107.68 26.3 109.52 29.05 112.81C27.5 114.85 26.63 115.98 26.46 116.21C21.86 122.2 24.16 127.79 31.25 127.79C34.25 127.79 35.25 127.19 37.54 124C37.73 123.74 38.66 122.48 40.34 120.2C43.82 121.58 45.75 122.35 46.13 122.5C57.32 127.09 72.3 127.09 84.29 122.6C90.08 120.5 90.18 120.5 91.58 122.4C94.97 127.19 95.97 127.79 99.87 127.79C106.26 127.79 107.86 122.2 103.46 115.71C103.3 115.47 102.46 114.27 100.97 112.11C102.52 110.67 103.39 109.88 103.56 109.72C107.86 105.72 113.75 95.93 115.95 88.94C119.04 79.25 118.94 65.67 115.65 56.28C107.76 33.81 87.98 19.82 64.41 20.02C60.02 20.02 53.72 20.82 50.43 21.82C32.55 26.92 18.17 41.7 13.57 59.48ZM87.28 43.7C109.46 60.58 105.56 94.73 80.09 106.62C75.2 108.92 73.1 109.32 64.91 109.32C56.52 109.22 54.72 108.92 49.53 106.42C41.64 102.62 35.55 96.23 31.65 88.04C28.85 82.15 28.45 80.35 28.45 72.86C28.45 65.67 28.95 63.47 31.25 58.38C36.05 48.09 46.13 39.6 56.62 36.9C61.61 35.71 72.3 36.4 77.89 38.4C80.39 39.2 84.59 41.6 87.28 43.7Z" id="a9hWk4IM"></path><path d="M60.52 58.28C60.02 64.47 59.22 69.06 58.22 70.46C55.12 75.26 59.32 81.85 65.41 81.85C67.81 81.85 70.9 83.05 74.6 85.44C82.49 90.44 84.19 91.04 86.78 89.14C90.78 86.34 89.28 82.95 81.89 78.25C78.29 76.06 74.2 72.96 72.7 71.46C70.1 68.86 70.1 68.67 70.6 58.88C71 51.69 70.8 48.49 69.9 47.39C68.41 45.59 63.51 45.39 62.21 47.09C61.61 47.79 60.81 52.88 60.52 58.28Z" id="e2pXErmBWY"></path></defs><g><g><g><use xlink:href="#b53QepMXw" opacity="1" fill="#000000" fill-opacity="1"></use><g><use xlink:href="#b53QepMXw" opacity="1" fill-opacity="0" stroke="#000000" stroke-width="1" stroke-opacity="0"></use></g></g><g><use xlink:href="#fwG9w5yac" opacity="1" fill="#000000" fill-opacity="1"></use><g><use xlink:href="#fwG9w5yac" opacity="1" fill-opacity="0" stroke="#000000" stroke-width="1" stroke-opacity="0"></use></g></g><g><use xlink:href="#a9hWk4IM" opacity="1" fill="#000000" fill-opacity="1"></use><g><use xlink:href="#a9hWk4IM" opacity="1" fill-opacity="0" stroke="#000000" stroke-width="1" stroke-opacity="0"></use></g></g><g><use xlink:href="#e2pXErmBWY" opacity="1" fill="#000000" fill-opacity="1"></use><g><use xlink:href="#e2pXErmBWY" opacity="1" fill-opacity="0" stroke="#000000" stroke-width="1" stroke-opacity="0"></use></g></g></g></g></svg>