<?xml version="1.0" encoding="UTF-8" standalone="no"?>
<!DOCTYPE svg PUBLIC "-//W3C//DTD SVG 1.1//EN" "http://www.w3.org/Graphics/SVG/1.1/DTD/svg11.dtd">
<svg version="1.1" xmlns="http://www.w3.org/2000/svg" xmlns:xlink="http://www.w3.org/1999/xlink" preserveAspectRatio="xMidYMid meet" viewBox="0 0 128 128" width="128" height="128"><defs><path d="M88.26 19.36C88.26 14.37 88.26 11.6 88.26 11.05C86.18 12.28 83.37 13.16 80.34 13.8C80.79 14.25 83.03 16.5 87.06 20.55L88.26 19.36Z" id="fc2cWfJQv"></path><path d="M63.97 20.55C67.27 17.26 69.1 15.43 69.46 15.06C67.24 15.17 65.31 15.2 64.01 15.2C62.67 15.2 60.73 15.17 58.48 15.06C59.21 15.79 61.04 17.62 63.97 20.55Z" id="b6yE9Vg5c"></path><path d="M87.06 43.61L88.26 42.41L88.26 27.17L87.06 25.97L78.23 34.81L87.06 43.61Z" id="h2bKa44OkL"></path><path d="M40.91 89.76L49.75 80.96L40.91 72.12L39.75 73.32L39.75 88.56L40.91 89.76Z" id="cA9jeNdo4"></path><path d="M40.91 66.7L49.75 57.86L40.91 49.07L39.75 50.26L39.75 65.5L40.91 66.7Z" id="a18MNj9jnP"></path><path d="M40.91 20.55C44.97 16.5 47.22 14.25 47.67 13.8C44.65 13.16 41.83 12.28 39.75 11.05C39.75 11.6 39.75 14.37 39.75 19.36L40.91 20.55Z" id="a1cBIFkdtf"></path><path d="M40.91 43.61L49.75 34.81L40.91 25.97L39.75 27.17L39.75 42.41L40.91 43.61Z" id="a2whArKrHl"></path><path d="M87.06 66.7L88.26 65.5L88.26 50.26L87.06 49.07L78.23 57.86L87.06 66.7Z" id="i4LpwiDNmI"></path><path d="M42.36 124.11C44.26 125.13 46.62 125.98 49.26 126.61C48.7 126.05 45.92 123.27 40.91 118.27L39.75 119.43C40.41 121.96 41.28 123.52 42.36 124.11Z" id="bqhkep8MK"></path><path d="M73.3 127.6C72.68 126.97 69.57 123.86 63.97 118.27L54.64 127.6C63.09 128.13 69.31 128.13 73.3 127.6Z" id="b7X7VuUsE5"></path><path d="M87.06 89.76L88.26 88.56L88.26 73.32L87.06 72.12L78.23 80.96L87.06 89.76Z" id="d1uujzTmYt"></path><path d="M85.66 124.11C87.24 123.23 88.19 121.4 88.22 119.43C88.15 119.35 87.76 118.96 87.06 118.27L78.72 126.61C82.08 125.62 84.39 124.79 85.66 124.11Z" id="d2Xkh6mm8"></path><path d="M43.62 115.56L52.46 124.36L61.26 115.56L52.46 106.72L43.62 115.56Z" id="a34xJsS7Ta"></path><path d="M87.06 112.85L88.26 111.65L88.26 96.41L87.06 95.21L78.23 104.01L87.06 112.85Z" id="b6TOaaxoei"></path><path d="M55.17 34.81L63.97 43.61L72.81 34.81L63.97 25.97L55.17 34.81Z" id="a3Sc72mi2"></path><path d="M61.26 69.41L52.46 60.61L43.62 69.41L52.46 78.21L61.26 69.41Z" id="lmcM1l2Hn"></path><path d="M52.46 55.15L61.26 46.35L52.46 37.52L43.62 46.35L52.46 55.15Z" id="b4Sj9EqbXo"></path><path d="M52.46 32.1L61.26 23.26L52.46 14.46L43.62 23.26L52.46 32.1Z" id="bs92fGbTG"></path><path d="M63.97 95.21L55.17 104.01L63.97 112.85L72.81 104.01L63.97 95.21Z" id="a2MxfLToB1"></path><path d="M61.26 92.47L52.46 83.67L43.62 92.47L52.46 101.3L61.26 92.47Z" id="d5xwtlV8DY"></path><path d="M66.72 23.26L75.52 32.1L84.35 23.26L75.52 14.46L66.72 23.26Z" id="d1IRLsAv0L"></path><path d="M72.81 80.96L63.97 72.12L55.17 80.96L63.97 89.76L72.81 80.96Z" id="a2zTEC0F2n"></path><path d="M66.72 115.56L75.52 124.36L84.35 115.56L75.52 106.72L66.72 115.56Z" id="cahDMSAlr"></path><path d="M55.17 57.86L63.97 66.7L72.81 57.86L63.97 49.07L55.17 57.86Z" id="c1QCD3uRpX"></path><path d="M66.72 46.35L75.52 55.15L84.35 46.35L75.52 37.52L66.72 46.35Z" id="apNELTc8"></path><path d="M75.52 83.67L66.72 92.47L75.52 101.3L84.35 92.47L75.52 83.67Z" id="b3tpM0pehO"></path><path d="M40.91 112.85L49.75 104.01L40.91 95.21L39.75 96.41L39.75 111.65L40.91 112.85Z" id="a1tQISP8yA"></path><path d="M66.72 69.41L75.52 78.21L84.35 69.41L75.52 60.61L66.72 69.41Z" id="hbVLXXSWD"></path><path d="M78.72 126.61C78.58 126.64 78.4 126.68 78.26 126.72C78.4 126.72 78.54 126.68 78.69 126.64C78.69 126.64 78.72 126.61 78.72 126.61Z" id="c3IaT6qmwy"></path><path d="M50.17 126.79C49.89 126.75 49.57 126.68 49.26 126.61C49.26 126.61 49.27 126.62 49.29 126.64C49.69 126.72 49.98 126.76 50.17 126.79Z" id="b4xKkEZxg7"></path><path d="M88.26 119.29C88.26 119.36 88.26 119.39 88.22 119.43C88.23 119.43 88.24 119.44 88.26 119.46C88.26 119.36 88.26 119.3 88.26 119.29Z" id="a77cZMyJPI"></path><path d="M39.74 5.84C39.74 2.61 50.6 0 64 0C77.4 0 88.26 2.61 88.26 5.84C88.26 9.06 77.4 11.68 64 11.68C50.6 11.68 39.74 9.06 39.74 5.84Z" id="c4Asn3gEBe"></path><path d="M64.23 7.38C58.39 7.38 53.67 6.64 53.67 5.73C53.67 4.82 58.39 4.08 64.23 4.08C70.06 4.08 74.79 4.82 74.79 5.73C74.79 6.64 70.06 7.38 64.23 7.38Z" id="a7Jqws33Z"></path></defs><g><g><g><use xlink:href="#fc2cWfJQv" opacity="1" fill="#000000" fill-opacity="1"></use><g><use xlink:href="#fc2cWfJQv" opacity="1" fill-opacity="0" stroke="#000000" stroke-width="1" stroke-opacity="0"></use></g></g><g><use xlink:href="#b6yE9Vg5c" opacity="1" fill="#000000" fill-opacity="1"></use><g><use xlink:href="#b6yE9Vg5c" opacity="1" fill-opacity="0" stroke="#000000" stroke-width="1" stroke-opacity="0"></use></g></g><g><use xlink:href="#h2bKa44OkL" opacity="1" fill="#000000" fill-opacity="1"></use><g><use xlink:href="#h2bKa44OkL" opacity="1" fill-opacity="0" stroke="#000000" stroke-width="1" stroke-opacity="0"></use></g></g><g><use xlink:href="#cA9jeNdo4" opacity="1" fill="#000000" fill-opacity="1"></use><g><use xlink:href="#cA9jeNdo4" opacity="1" fill-opacity="0" stroke="#000000" stroke-width="1" stroke-opacity="0"></use></g></g><g><use xlink:href="#a18MNj9jnP" opacity="1" fill="#000000" fill-opacity="1"></use><g><use xlink:href="#a18MNj9jnP" opacity="1" fill-opacity="0" stroke="#000000" stroke-width="1" stroke-opacity="0"></use></g></g><g><use xlink:href="#a1cBIFkdtf" opacity="1" fill="#000000" fill-opacity="1"></use><g><use xlink:href="#a1cBIFkdtf" opacity="1" fill-opacity="0" stroke="#000000" stroke-width="1" stroke-opacity="0"></use></g></g><g><use xlink:href="#a2whArKrHl" opacity="1" fill="#000000" fill-opacity="1"></use><g><use xlink:href="#a2whArKrHl" opacity="1" fill-opacity="0" stroke="#000000" stroke-width="1" stroke-opacity="0"></use></g></g><g><use xlink:href="#i4LpwiDNmI" opacity="1" fill="#000000" fill-opacity="1"></use><g><use xlink:href="#i4LpwiDNmI" opacity="1" fill-opacity="0" stroke="#000000" stroke-width="1" stroke-opacity="0"></use></g></g><g><use xlink:href="#bqhkep8MK" opacity="1" fill="#000000" fill-opacity="1"></use><g><use xlink:href="#bqhkep8MK" opacity="1" fill-opacity="0" stroke="#000000" stroke-width="1" stroke-opacity="0"></use></g></g><g><use xlink:href="#b7X7VuUsE5" opacity="1" fill="#000000" fill-opacity="1"></use><g><use xlink:href="#b7X7VuUsE5" opacity="1" fill-opacity="0" stroke="#000000" stroke-width="1" stroke-opacity="0"></use></g></g><g><use xlink:href="#d1uujzTmYt" opacity="1" fill="#000000" fill-opacity="1"></use><g><use xlink:href="#d1uujzTmYt" opacity="1" fill-opacity="0" stroke="#000000" stroke-width="1" stroke-opacity="0"></use></g></g><g><use xlink:href="#d2Xkh6mm8" opacity="1" fill="#000000" fill-opacity="1"></use><g><use xlink:href="#d2Xkh6mm8" opacity="1" fill-opacity="0" stroke="#000000" stroke-width="1" stroke-opacity="0"></use></g></g><g><use xlink:href="#a34xJsS7Ta" opacity="1" fill="#000000" fill-opacity="1"></use><g><use xlink:href="#a34xJsS7Ta" opacity="1" fill-opacity="0" stroke="#000000" stroke-width="1" stroke-opacity="0"></use></g></g><g><use xlink:href="#b6TOaaxoei" opacity="1" fill="#000000" fill-opacity="1"></use><g><use xlink:href="#b6TOaaxoei" opacity="1" fill-opacity="0" stroke="#000000" stroke-width="1" stroke-opacity="0"></use></g></g><g><use xlink:href="#a3Sc72mi2" opacity="1" fill="#000000" fill-opacity="1"></use><g><use xlink:href="#a3Sc72mi2" opacity="1" fill-opacity="0" stroke="#000000" stroke-width="1" stroke-opacity="0"></use></g></g><g><use xlink:href="#lmcM1l2Hn" opacity="1" fill="#000000" fill-opacity="1"></use><g><use xlink:href="#lmcM1l2Hn" opacity="1" fill-opacity="0" stroke="#000000" stroke-width="1" stroke-opacity="0"></use></g></g><g><use xlink:href="#b4Sj9EqbXo" opacity="1" fill="#000000" fill-opacity="1"></use><g><use xlink:href="#b4Sj9EqbXo" opacity="1" fill-opacity="0" stroke="#000000" stroke-width="1" stroke-opacity="0"></use></g></g><g><use xlink:href="#bs92fGbTG" opacity="1" fill="#000000" fill-opacity="1"></use><g><use xlink:href="#bs92fGbTG" opacity="1" fill-opacity="0" stroke="#000000" stroke-width="1" stroke-opacity="0"></use></g></g><g><use xlink:href="#a2MxfLToB1" opacity="1" fill="#000000" fill-opacity="1"></use><g><use xlink:href="#a2MxfLToB1" opacity="1" fill-opacity="0" stroke="#000000" stroke-width="1" stroke-opacity="0"></use></g></g><g><use xlink:href="#d5xwtlV8DY" opacity="1" fill="#000000" fill-opacity="1"></use><g><use xlink:href="#d5xwtlV8DY" opacity="1" fill-opacity="0" stroke="#000000" stroke-width="1" stroke-opacity="0"></use></g></g><g><use xlink:href="#d1IRLsAv0L" opacity="1" fill="#000000" fill-opacity="1"></use><g><use xlink:href="#d1IRLsAv0L" opacity="1" fill-opacity="0" stroke="#000000" stroke-width="1" stroke-opacity="0"></use></g></g><g><use xlink:href="#a2zTEC0F2n" opacity="1" fill="#000000" fill-opacity="1"></use><g><use xlink:href="#a2zTEC0F2n" opacity="1" fill-opacity="0" stroke="#000000" stroke-width="1" stroke-opacity="0"></use></g></g><g><use xlink:href="#cahDMSAlr" opacity="1" fill="#000000" fill-opacity="1"></use><g><use xlink:href="#cahDMSAlr" opacity="1" fill-opacity="0" stroke="#000000" stroke-width="1" stroke-opacity="0"></use></g></g><g><use xlink:href="#c1QCD3uRpX" opacity="1" fill="#000000" fill-opacity="1"></use><g><use xlink:href="#c1QCD3uRpX" opacity="1" fill-opacity="0" stroke="#000000" stroke-width="1" stroke-opacity="0"></use></g></g><g><use xlink:href="#apNELTc8" opacity="1" fill="#000000" fill-opacity="1"></use><g><use xlink:href="#apNELTc8" opacity="1" fill-opacity="0" stroke="#000000" stroke-width="1" stroke-opacity="0"></use></g></g><g><use xlink:href="#b3tpM0pehO" opacity="1" fill="#000000" fill-opacity="1"></use><g><use xlink:href="#b3tpM0pehO" opacity="1" fill-opacity="0" stroke="#000000" stroke-width="1" stroke-opacity="0"></use></g></g><g><use xlink:href="#a1tQISP8yA" opacity="1" fill="#000000" fill-opacity="1"></use><g><use xlink:href="#a1tQISP8yA" opacity="1" fill-opacity="0" stroke="#000000" stroke-width="1" stroke-opacity="0"></use></g></g><g><use xlink:href="#hbVLXXSWD" opacity="1" fill="#000000" fill-opacity="1"></use><g><use xlink:href="#hbVLXXSWD" opacity="1" fill-opacity="0" stroke="#000000" stroke-width="1" stroke-opacity="0"></use></g></g><g><use xlink:href="#c3IaT6qmwy" opacity="1" fill="#000000" fill-opacity="1"></use><g><use xlink:href="#c3IaT6qmwy" opacity="1" fill-opacity="0" stroke="#000000" stroke-width="1" stroke-opacity="0"></use></g></g><g><use xlink:href="#b4xKkEZxg7" opacity="1" fill="#000000" fill-opacity="1"></use><g><use xlink:href="#b4xKkEZxg7" opacity="1" fill-opacity="0" stroke="#000000" stroke-width="1" stroke-opacity="0"></use></g></g><g><use xlink:href="#a77cZMyJPI" opacity="1" fill="#000000" fill-opacity="1"></use><g><use xlink:href="#a77cZMyJPI" opacity="1" fill-opacity="0" stroke="#000000" stroke-width="1" stroke-opacity="0"></use></g></g><g><use xlink:href="#c4Asn3gEBe" opacity="1" fill="#000000" fill-opacity="1"></use><g><use xlink:href="#c4Asn3gEBe" opacity="1" fill-opacity="0" stroke="#000000" stroke-width="1" stroke-opacity="0"></use></g></g><g><use xlink:href="#a7Jqws33Z" opacity="1" fill="#ffffff" fill-opacity="1"></use><g><use xlink:href="#a7Jqws33Z" opacity="1" fill-opacity="0" stroke="#ffffff" stroke-width="1" stroke-opacity="1"></use></g></g></g></g></svg>