<?xml version="1.0" encoding="UTF-8" standalone="no"?>
<!DOCTYPE svg PUBLIC "-//W3C//DTD SVG 1.1//EN" "http://www.w3.org/Graphics/SVG/1.1/DTD/svg11.dtd">
<svg version="1.1" xmlns="http://www.w3.org/2000/svg" xmlns:xlink="http://www.w3.org/1999/xlink" preserveAspectRatio="xMidYMid meet" viewBox="0 0 32 32" width="32" height="32"><defs><path d="M23.61 16.03C23.61 20.22 20.22 23.61 16.03 23.61C11.78 23.61 8.39 20.22 8.39 16.03C8.39 11.78 11.78 8.39 16.03 8.39C20.22 8.39 23.61 11.78 23.61 16.03ZM10.34 16.03C10.34 19.13 12.87 21.66 16.03 21.66C19.13 21.66 21.66 19.13 21.66 16.03C21.66 12.87 19.13 10.34 16.03 10.34C12.87 10.34 10.34 12.87 10.34 16.03Z" id="bEbhzmht3"></path><path d="M16.03 0C16.55 0 16.95 0.46 16.95 0.98C16.95 1.46 16.95 5.37 16.95 5.86C16.95 6.38 16.55 6.84 16.03 6.84C15.45 6.84 15.05 6.38 15.05 5.86C15.05 5.53 15.05 3.91 15.05 0.98C15.32 0.33 15.65 0 16.03 0Z" id="d13vyw1Sne"></path><path d="M4.71 4.71C5.06 4.31 5.69 4.31 6.09 4.71C6.43 5.05 9.14 7.76 9.48 8.1C9.88 8.5 9.88 9.13 9.48 9.48C9.13 9.88 8.5 9.88 8.1 9.48C7.87 9.25 6.74 8.12 4.71 6.09C4.44 5.4 4.44 4.94 4.71 4.71Z" id="a33xBhx6ZU"></path><path d="M0 16.03C0 15.45 0.46 15.05 0.98 15.05C1.46 15.05 5.37 15.05 5.86 15.05C6.38 15.05 6.84 15.45 6.84 16.03C6.84 16.55 6.38 16.95 5.86 16.95C5.53 16.95 3.91 16.95 0.98 16.95C0.33 16.68 0 16.37 0 16.03Z" id="c2EkzVDFrH"></path><path d="M4.71 27.29C4.31 26.94 4.31 26.31 4.71 25.97C5.05 25.62 7.76 22.87 8.1 22.52C8.5 22.12 9.13 22.12 9.48 22.52C9.88 22.87 9.88 23.5 9.48 23.9C9.25 24.13 8.12 25.26 6.09 27.29C5.4 27.56 4.94 27.56 4.71 27.29Z" id="a1NoDDHaQY"></path><path d="M16.03 32C15.45 32 15.05 31.6 15.05 31.02C15.05 30.54 15.05 26.63 15.05 26.14C15.05 25.62 15.45 25.22 16.03 25.22C16.55 25.22 16.95 25.62 16.95 26.14C16.95 26.47 16.95 28.09 16.95 31.02C16.68 31.67 16.37 32 16.03 32Z" id="d3BC74hHIx"></path><path d="M27.35 27.29C26.94 27.69 26.31 27.69 25.97 27.29C25.62 26.95 22.87 24.24 22.52 23.9C22.12 23.5 22.12 22.87 22.52 22.52C22.87 22.12 23.5 22.12 23.9 22.52C24.13 22.75 25.28 23.9 27.35 25.97C27.58 26.62 27.58 27.06 27.35 27.29Z" id="a1p6SiqvVZ"></path><path d="M32 16.03C32 16.55 31.6 16.95 31.02 16.95C30.54 16.95 26.63 16.95 26.14 16.95C25.62 16.95 25.22 16.55 25.22 16.03C25.22 15.45 25.62 15.05 26.14 15.05C26.47 15.05 28.09 15.05 31.02 15.05C31.67 15.32 32 15.65 32 16.03Z" id="a2dGAiUhm0"></path><path d="M27.35 4.71C27.69 5.06 27.69 5.69 27.35 6.09C27 6.43 24.24 9.14 23.9 9.48C23.5 9.88 22.87 9.88 22.52 9.48C22.12 9.13 22.12 8.5 22.52 8.1C22.75 7.87 23.9 6.74 25.97 4.71C26.62 4.44 27.08 4.44 27.35 4.71Z" id="b7ZmIG72qk"></path></defs><g><g><g><use xlink:href="#bEbhzmht3" opacity="1" fill="#000000" fill-opacity="1"></use><g><use xlink:href="#bEbhzmht3" opacity="1" fill-opacity="0" stroke="#000000" stroke-width="1" stroke-opacity="0"></use></g></g><g><use xlink:href="#d13vyw1Sne" opacity="1" fill="#000000" fill-opacity="1"></use><g><use xlink:href="#d13vyw1Sne" opacity="1" fill-opacity="0" stroke="#000000" stroke-width="1" stroke-opacity="0"></use></g></g><g><use xlink:href="#a33xBhx6ZU" opacity="1" fill="#000000" fill-opacity="1"></use><g><use xlink:href="#a33xBhx6ZU" opacity="1" fill-opacity="0" stroke="#000000" stroke-width="1" stroke-opacity="0"></use></g></g><g><use xlink:href="#c2EkzVDFrH" opacity="1" fill="#000000" fill-opacity="1"></use><g><use xlink:href="#c2EkzVDFrH" opacity="1" fill-opacity="0" stroke="#000000" stroke-width="1" stroke-opacity="0"></use></g></g><g><use xlink:href="#a1NoDDHaQY" opacity="1" fill="#000000" fill-opacity="1"></use><g><use xlink:href="#a1NoDDHaQY" opacity="1" fill-opacity="0" stroke="#000000" stroke-width="1" stroke-opacity="0"></use></g></g><g><use xlink:href="#d3BC74hHIx" opacity="1" fill="#000000" fill-opacity="1"></use><g><use xlink:href="#d3BC74hHIx" opacity="1" fill-opacity="0" stroke="#000000" stroke-width="1" stroke-opacity="0"></use></g></g><g><use xlink:href="#a1p6SiqvVZ" opacity="1" fill="#000000" fill-opacity="1"></use><g><use xlink:href="#a1p6SiqvVZ" opacity="1" fill-opacity="0" stroke="#000000" stroke-width="1" stroke-opacity="0"></use></g></g><g><use xlink:href="#a2dGAiUhm0" opacity="1" fill="#000000" fill-opacity="1"></use><g><use xlink:href="#a2dGAiUhm0" opacity="1" fill-opacity="0" stroke="#000000" stroke-width="1" stroke-opacity="0"></use></g></g><g><use xlink:href="#b7ZmIG72qk" opacity="1" fill="#000000" fill-opacity="1"></use><g><use xlink:href="#b7ZmIG72qk" opacity="1" fill-opacity="0" stroke="#000000" stroke-width="1" stroke-opacity="0"></use></g></g></g></g></svg>