<?xml version="1.0" encoding="UTF-8" standalone="no"?>
<!DOCTYPE svg PUBLIC "-//W3C//DTD SVG 1.1//EN" "http://www.w3.org/Graphics/SVG/1.1/DTD/svg11.dtd">
<svg version="1.1" xmlns="http://www.w3.org/2000/svg" xmlns:xlink="http://www.w3.org/1999/xlink" preserveAspectRatio="xMidYMid meet" viewBox="0 0 64 64" width="64" height="64"><defs><path d="M2.67 21.33C2.67 24.28 5.06 26.67 8 26.67C8 29.33 8 50.67 8 53.33C8 59.22 12.78 64 18.67 64C21.33 64 42.67 64 45.33 64C51.22 64 56 59.22 56 53.33C56 50.67 56 29.33 56 26.67C58.94 26.67 61.33 24.28 61.33 21.33C61.33 20.8 61.33 16.53 61.33 16C61.33 13.05 58.94 10.67 56 10.67C55.29 10.67 51.73 10.67 45.33 10.67C45.33 7.47 45.33 5.69 45.33 5.33C45.33 2.39 42.94 0 40 0C38.4 0 25.6 0 24 0C21.06 0 18.67 2.39 18.67 5.33C18.67 5.69 18.67 7.47 18.67 10.67C12.27 10.67 8.71 10.67 8 10.67C5.06 10.67 2.67 13.05 2.67 16C2.67 17.07 2.67 20.27 2.67 21.33ZM50.66 53.33C50.66 56.28 48.28 58.67 45.33 58.67C42.67 58.67 21.33 58.67 18.67 58.67C15.72 58.67 13.34 56.28 13.34 53.33C13.34 51.56 13.34 42.67 13.34 26.67L50.66 26.67C50.66 40.89 50.66 49.78 50.66 53.33ZM24 5.33L40 5.33L40 10.67L24 10.67L24 5.33ZM8 16L56 16L56 21.33L8 21.33L8 16Z" id="d6qlqzPNF"></path><path d="M24 50.67C24 49.07 24 36.27 24 34.67C24 33.19 22.81 32 21.33 32C19.86 32 18.67 33.19 18.67 34.67C18.67 36.27 18.67 49.07 18.67 50.67C18.67 52.14 19.86 53.33 21.33 53.33C22.81 53.33 24 52.14 24 50.67Z" id="d19LzyOLJ9"></path><path d="M34.67 50.67C34.67 49.07 34.67 36.27 34.67 34.67C34.67 33.19 33.47 32 32 32C30.53 32 29.33 33.19 29.33 34.67C29.33 36.27 29.33 49.07 29.33 50.67C29.33 52.14 30.53 53.33 32 53.33C33.47 53.33 34.67 52.14 34.67 50.67Z" id="b1yxgInvEx"></path><path d="M45.33 50.67C45.33 49.07 45.33 36.27 45.33 34.67C45.33 33.19 44.14 32 42.67 32C41.19 32 40 33.19 40 34.67C40 36.27 40 49.07 40 50.67C40 52.14 41.19 53.33 42.67 53.33C44.14 53.33 45.33 52.14 45.33 50.67Z" id="c2bRjzVOZ"></path></defs><g><g><g><use xlink:href="#d6qlqzPNF" opacity="1" fill="#000000" fill-opacity="1"></use><g><use xlink:href="#d6qlqzPNF" opacity="1" fill-opacity="0" stroke="#000000" stroke-width="1" stroke-opacity="0"></use></g></g><g><use xlink:href="#d19LzyOLJ9" opacity="1" fill="#000000" fill-opacity="1"></use><g><use xlink:href="#d19LzyOLJ9" opacity="1" fill-opacity="0" stroke="#000000" stroke-width="1" stroke-opacity="0"></use></g></g><g><use xlink:href="#b1yxgInvEx" opacity="1" fill="#000000" fill-opacity="1"></use><g><use xlink:href="#b1yxgInvEx" opacity="1" fill-opacity="0" stroke="#000000" stroke-width="1" stroke-opacity="0"></use></g></g><g><use xlink:href="#c2bRjzVOZ" opacity="1" fill="#000000" fill-opacity="1"></use><g><use xlink:href="#c2bRjzVOZ" opacity="1" fill-opacity="0" stroke="#000000" stroke-width="1" stroke-opacity="0"></use></g></g></g></g></svg>