<?xml version="1.0" encoding="UTF-8" standalone="no"?>
<!DOCTYPE svg PUBLIC "-//W3C//DTD SVG 1.1//EN" "http://www.w3.org/Graphics/SVG/1.1/DTD/svg11.dtd">
<svg version="1.1" xmlns="http://www.w3.org/2000/svg" xmlns:xlink="http://www.w3.org/1999/xlink" preserveAspectRatio="xMidYMid meet" viewBox="0 0 200 80" width="200" height="80"><defs><path d="M47.99 21.48C48 21.49 48.02 21.5 48.03 21.5C48.35 21.68 48.67 21.86 48.99 22.03C48.99 22.03 48.99 22.03 49 22.04C49 22.04 49 22.04 49 22.04C49.07 22.08 49.14 22.11 49.2 22.15C49.47 22.3 49.74 22.45 50 22.59C50.06 22.63 50.13 22.66 50.19 22.7C50.2 22.71 50.22 22.71 50.23 22.72C50.27 22.75 50.32 22.77 50.36 22.79C50.67 22.96 50.98 23.14 51.28 23.31C51.36 23.35 51.43 23.39 51.5 23.43C51.77 23.59 52.03 23.74 52.3 23.89C52.32 23.9 52.33 23.91 52.35 23.92C52.37 23.93 52.39 23.94 52.41 23.95C52.49 23.99 52.56 24.03 52.63 24.07C52.63 24.07 52.63 24.07 52.63 24.07C52.63 24.08 52.63 24.08 52.64 24.08C52.92 24.24 53.21 24.4 53.49 24.57C53.57 24.61 53.64 24.65 53.72 24.7C53.72 24.7 53.73 24.7 53.74 24.71C53.74 24.71 53.75 24.71 53.75 24.72C54.04 24.88 54.32 25.04 54.61 25.21C54.68 25.25 54.75 25.29 54.82 25.33C55.12 25.51 55.41 25.68 55.71 25.85C55.77 25.88 55.83 25.92 55.89 25.95C56.17 26.12 56.45 26.28 56.73 26.45C56.76 26.47 56.79 26.48 56.82 26.5C56.86 26.52 56.9 26.55 56.94 26.57C56.95 26.58 56.96 26.58 56.97 26.59C57.23 26.75 57.49 26.9 57.75 27.06C57.82 27.1 57.89 27.14 57.96 27.18C58.17 27.31 58.38 27.43 58.59 27.56C58.65 27.59 58.71 27.63 58.78 27.67C58.81 27.69 58.84 27.7 58.87 27.72C58.9 27.74 58.93 27.76 58.96 27.78C59.23 27.94 59.5 28.1 59.76 28.26C59.82 28.3 59.87 28.33 59.93 28.36C59.93 28.36 59.93 28.36 59.93 28.36C59.93 28.36 59.93 28.36 59.93 28.36C60.17 28.51 60.41 28.65 60.64 28.8C60.67 28.81 60.7 28.83 60.72 28.85C60.74 28.86 60.76 28.87 60.77 28.88C60.81 28.9 60.84 28.92 60.87 28.94C61.14 29.1 61.39 29.26 61.65 29.42C61.69 29.44 61.74 29.47 61.78 29.5C61.78 29.5 61.78 29.5 61.79 29.5C61.79 29.5 61.79 29.51 61.79 29.51C62.05 29.66 62.3 29.82 62.55 29.98C62.59 30 62.63 30.03 62.67 30.05C62.92 30.21 63.17 30.37 63.42 30.52C63.45 30.54 63.48 30.57 63.52 30.59C63.77 30.74 64.01 30.9 64.25 31.05C64.27 31.07 64.3 31.08 64.33 31.1C64.33 31.1 64.33 31.1 64.34 31.11C64.34 31.11 64.35 31.11 64.35 31.12C64.59 31.27 64.82 31.42 65.04 31.56C65.05 31.56 65.05 31.57 65.05 31.57C65.05 31.57 65.05 31.57 65.06 31.57C65.08 31.58 65.1 31.6 65.12 31.61C65.35 31.76 65.58 31.91 65.8 32.05C65.8 32.05 65.8 32.05 65.8 32.05C65.8 32.05 65.8 32.05 65.8 32.05C65.82 32.07 65.84 32.08 65.87 32.1C66.07 32.23 66.27 32.37 66.47 32.5C66.49 32.51 66.51 32.53 66.53 32.54C66.54 32.54 66.54 32.55 66.55 32.55C66.56 32.55 66.56 32.56 66.57 32.56C66.78 32.7 66.99 32.84 67.19 32.98C67.2 32.98 67.2 32.98 67.2 32.98C67.22 32.99 67.23 33 67.24 33.01C67.25 33.02 67.25 33.02 67.26 33.02C67.46 33.16 67.65 33.29 67.84 33.42C67.85 33.43 67.86 33.43 67.87 33.44C68.06 33.57 68.24 33.69 68.41 33.81C68.41 33.82 68.41 33.82 68.42 33.82C68.42 33.82 68.42 33.82 68.42 33.82C68.43 33.83 68.45 33.84 68.46 33.85C68.64 33.97 68.8 34.09 68.96 34.2C68.96 34.2 68.97 34.21 68.97 34.21C68.98 34.22 68.99 34.22 68.99 34.23C69 34.23 69 34.23 69 34.23C69 34.23 69 34.23 69.01 34.23C69.01 34.24 69.01 34.24 69.01 34.24C69.17 34.35 69.32 34.46 69.47 34.57C69.48 34.57 69.49 34.58 69.5 34.59C69.7 34.3 69.91 34.02 70.13 33.73C58.27 24.57 47.61 19.31 38.4 14.77C38.4 14.94 38.4 16.29 38.4 16.46C41.62 18.06 44.84 19.75 47.93 21.45C47.94 21.46 47.95 21.46 47.96 21.46C47.97 21.47 47.98 21.47 47.99 21.48Z" id="btexN2VgJ"></path><path d="M63.08 69.33C59.44 69.48 57.42 69.57 57.01 69.58C68.43 73.49 78.87 74.02 86.63 71.83C80.41 71.9 72.31 71.02 63.08 67.67C63.08 67.9 63.08 68.45 63.08 69.33Z" id="a1dr8ksUrK"></path><path d="M200 22.6C200 17.6 195.97 14.94 190.96 14.94C185.99 14.94 181.92 17.63 181.92 22.6C181.92 27.58 185.96 31.64 190.96 31.64C195.93 31.64 200 27.61 200 22.6Z" id="gz7fsNqQl"></path><path d="M20.23 36.53C20.23 36.53 20.23 36.58 20.23 36.58C5 19.54 8.07 12.82 9.22 11.84C13.45 8.28 20.95 9.34 29.36 12.5C29.55 12.41 31.14 11.69 31.34 11.6C14.38 4.73 3.5 5.91 0.91 11.63C0.91 11.63 -5.47 20.92 15.6 41.92C17.02 43.32 18.56 44.77 20.23 46.28C20.23 46.28 20.23 46.32 20.23 46.32C20.25 46.33 20.26 46.34 20.27 46.35C20.27 46.35 20.27 46.32 20.27 46.32C20.27 46.32 20.27 46.31 20.26 46.31C20.26 45.34 20.26 37.59 20.26 36.62C20.27 36.62 20.27 36.62 20.27 36.63C20.27 36.63 20.27 36.63 20.27 36.63L20.27 36.57C20.26 36.55 20.24 36.54 20.23 36.53Z" id="avDVwZ3vg"></path><path d="M176.95 69.33L176.95 8.25L158.84 16.79L158.84 69.33L176.95 69.33Z" id="a6HfHu3Axw"></path><path d="M20.23 69.33L38.34 69.33C38.34 63.96 38.34 60.98 38.34 60.39C36.31 59.07 34.28 57.66 32.27 56.13C27.65 52.63 23.71 49.38 20.27 46.32C20.27 46.32 20.27 46.35 20.27 46.35C20.26 46.34 20.25 46.33 20.23 46.32C20.23 49.39 20.23 57.06 20.23 69.33Z" id="c3xz5yHIPD"></path><path d="M87.72 26.64C87.72 26.64 77.65 26.29 71.96 31.99C71.37 32.58 70.8 33.21 70.3 33.86C58.36 24.61 47.63 19.32 38.37 14.75C38.37 14.32 38.37 12.16 38.37 8.28L20.23 16.79C20.23 28.63 20.23 35.21 20.23 36.53C20.25 36.54 20.26 36.56 20.27 36.57C20.27 36.58 20.27 36.59 20.27 36.63C20.27 36.63 20.27 36.63 20.27 36.63C24.37 41.22 29.81 46.44 36.97 52.35C37.06 52.42 37.53 52.8 38.37 53.47C38.37 47.88 38.37 44.78 38.37 44.15C38.37 42 38.9 38.46 41.75 38.46C44.6 38.46 45.07 40.62 45.07 43.15C45.07 44.68 45.07 56.86 45.07 58.39C50.69 62.2 56.73 65.3 63.11 67.64C63.11 64.71 63.11 41.21 63.11 38.27C63.11 32.43 58.92 26.58 50.41 26.58C45.47 26.55 40.87 29.14 38.37 33.43C38.37 31.73 38.37 18.14 38.37 16.44C38.38 16.45 38.39 16.45 38.4 16.46C38.4 16.29 38.4 14.94 38.4 14.77C47.61 19.31 58.26 24.57 70.13 33.73C69.9 34.02 69.69 34.31 69.5 34.59C69.49 34.58 69.48 34.58 69.47 34.57C69.52 34.61 69.57 34.64 69.62 34.68C66.43 39.24 66.71 43.47 66.71 48.35C66.71 54.19 66.27 59.07 71.96 64.77C77.65 70.46 87.72 70.11 87.72 70.11C87.72 70.11 97.83 70.46 103.49 64.77C109.18 59.07 108.71 54.19 108.71 48.35C108.71 42.56 109.18 37.65 103.49 31.99C97.8 26.29 90.88 27.71 87.72 26.64ZM87.72 58.39C84.94 58.39 84.38 55.6 84.38 54.48C84.38 53.21 84.38 43.1 84.38 41.84C84.38 39.12 86.66 38.43 87.72 38.43C88.79 38.43 91.07 39.09 91.07 41.84C91.07 42.68 91.07 46.89 91.07 54.48C90.7 57.08 89.58 58.39 87.72 58.39Z" id="a91xLGIQIP"></path><path d="M57.01 69.58C52.88 68.14 48.88 66.39 45.03 64.33C45.03 64.66 45.03 66.33 45.03 69.33C52.22 69.48 56.21 69.57 57.01 69.58Z" id="cNduL66SB"></path><path d="M200 34.77C200 34.77 200 34.77 200 34.77C200 55.51 200 67.03 200 69.33C200 69.33 200 69.33 200 69.33C189.14 69.33 183.1 69.33 181.89 69.33C181.89 69.33 181.89 69.33 181.89 69.33C181.89 48.59 181.89 37.07 181.89 34.77C181.89 34.77 181.89 34.77 181.89 34.77C192.76 34.77 198.79 34.77 200 34.77Z" id="ceRBYVCqJ"></path><path d="M133.39 26.64C133.39 26.64 123.28 26.29 117.62 31.99C111.93 37.68 112.37 42.59 112.37 48.44C112.37 54.29 111.93 59.17 117.62 64.86C123.31 70.55 133.39 70.21 133.39 70.21C133.39 70.21 143.49 70.55 149.15 64.86C154.84 59.17 154.4 54.29 154.4 48.44C154.37 42.56 154.81 37.65 149.15 31.99C143.46 26.29 136.54 27.71 133.39 26.64ZM133.35 58.39C130.57 58.39 130.01 55.6 130.01 54.48C130.01 53.21 130.01 43.1 130.01 41.84C130.01 39.12 132.29 38.43 133.35 38.43C134.42 38.43 136.7 39.09 136.7 41.84C136.7 42.68 136.7 46.89 136.7 54.48C136.32 57.08 135.21 58.39 133.35 58.39Z" id="c17Tp7KDtL"></path></defs><g><g><g><use xlink:href="#btexN2VgJ" opacity="1" fill="#008bff" fill-opacity="1"></use><g><use xlink:href="#btexN2VgJ" opacity="1" fill-opacity="0" stroke="#000000" stroke-width="1" stroke-opacity="0"></use></g></g><g><use xlink:href="#a1dr8ksUrK" opacity="1" fill="#008bff" fill-opacity="1"></use><g><use xlink:href="#a1dr8ksUrK" opacity="1" fill-opacity="0" stroke="#000000" stroke-width="1" stroke-opacity="0"></use></g></g><g><use xlink:href="#gz7fsNqQl" opacity="1" fill="#008bff" fill-opacity="1"></use><g><use xlink:href="#gz7fsNqQl" opacity="1" fill-opacity="0" stroke="#000000" stroke-width="1" stroke-opacity="0"></use></g></g><g><use xlink:href="#avDVwZ3vg" opacity="1" fill="#008bff" fill-opacity="1"></use><g><use xlink:href="#avDVwZ3vg" opacity="1" fill-opacity="0" stroke="#000000" stroke-width="1" stroke-opacity="0"></use></g></g><g><use xlink:href="#a6HfHu3Axw" opacity="1" fill="#000000" fill-opacity="1"></use><g><use xlink:href="#a6HfHu3Axw" opacity="1" fill-opacity="0" stroke="#000000" stroke-width="1" stroke-opacity="0"></use></g></g><g><use xlink:href="#c3xz5yHIPD" opacity="1" fill="#000000" fill-opacity="1"></use><g><use xlink:href="#c3xz5yHIPD" opacity="1" fill-opacity="0" stroke="#000000" stroke-width="1" stroke-opacity="0"></use></g></g><g><use xlink:href="#a91xLGIQIP" opacity="1" fill="#000000" fill-opacity="1"></use><g><use xlink:href="#a91xLGIQIP" opacity="1" fill-opacity="0" stroke="#000000" stroke-width="1" stroke-opacity="0"></use></g></g><g><use xlink:href="#cNduL66SB" opacity="1" fill="#000000" fill-opacity="1"></use><g><use xlink:href="#cNduL66SB" opacity="1" fill-opacity="0" stroke="#000000" stroke-width="1" stroke-opacity="0"></use></g></g><g><use xlink:href="#ceRBYVCqJ" opacity="1" fill="#000000" fill-opacity="1"></use><g><use xlink:href="#ceRBYVCqJ" opacity="1" fill-opacity="0" stroke="#000000" stroke-width="1" stroke-opacity="0"></use></g></g><g><use xlink:href="#c17Tp7KDtL" opacity="1" fill="#000000" fill-opacity="1"></use><g><use xlink:href="#c17Tp7KDtL" opacity="1" fill-opacity="0" stroke="#000000" stroke-width="1" stroke-opacity="0"></use></g></g></g></g></svg>