<?xml version="1.0" encoding="UTF-8" standalone="no"?>
<!DOCTYPE svg PUBLIC "-//W3C//DTD SVG 1.1//EN" "http://www.w3.org/Graphics/SVG/1.1/DTD/svg11.dtd">
<svg version="1.1" xmlns="http://www.w3.org/2000/svg" xmlns:xlink="http://www.w3.org/1999/xlink" preserveAspectRatio="xMidYMid meet" viewBox="0 0 32 32" width="32" height="32"><defs><path d="M9.14 4.97C8.66 5.14 8.31 5.09 7.68 4.72C6.33 3.89 5.36 4.09 3.8 5.57C2.15 7.1 1.85 8.47 2.85 9.65C3.4 10.3 3.43 10.4 3.1 11.03C2.85 11.5 2.55 11.73 2.15 11.73C1.8 11.73 1.2 12.03 0.77 12.38C0 13 0 13.05 0 15.36C0 17.59 0.02 17.74 0.65 18.21C1.03 18.51 1.65 18.74 2.05 18.74C3.15 18.74 3.45 19.79 2.75 21.07C1.95 22.47 2.2 23.34 3.88 24.99C5.08 26.2 5.38 26.37 6.26 26.37C6.93 26.37 7.43 26.2 7.79 25.84C8.24 25.37 8.41 25.34 9.04 25.57C9.46 25.74 9.76 26.05 9.76 26.32C9.76 27.82 11.29 29 13.27 29C13.33 29 13.67 29 14.27 29C14.27 28.9 14.27 28.38 14.27 27.45L14.27 25.92L17.9 22.27C20.06 20.07 21.27 18.85 21.51 18.61C21.76 17.52 21.9 16.91 21.93 16.78C22.48 14.38 22.91 13.88 24.93 13.33C25.05 13.3 25.61 13.15 26.61 12.88C26.21 12.53 25.98 12.34 25.94 12.3C25.56 11.98 24.99 11.73 24.66 11.73C24.23 11.73 23.93 11.5 23.68 11.03C23.33 10.37 23.36 10.27 23.81 9.83C24.08 9.55 24.36 8.93 24.43 8.45C24.56 7.72 24.43 7.4 23.73 6.47C22.11 4.32 20.45 3.72 19.03 4.72C18.02 5.42 17.15 5.07 16.92 3.87C16.82 3.34 16.45 2.74 16 2.37C15.32 1.79 15.02 1.71 13.44 1.74C12.44 1.74 11.39 1.86 11.09 2.01C10.51 2.29 9.76 3.62 9.76 4.32C9.76 4.54 9.49 4.84 9.14 4.97ZM8.59 18.24C6.53 14.86 8.29 10.68 12.14 9.7C13.17 9.43 14.95 9.68 16.02 10.22C20.05 12.3 20.08 18.21 16.05 20.29C13.29 21.74 10.16 20.87 8.59 18.24Z" id="bn8yLsgy3"></path><path d="M9.14 4.97C8.66 5.14 8.31 5.09 7.68 4.72C6.33 3.89 5.36 4.09 3.8 5.57C2.15 7.1 1.85 8.47 2.85 9.65C3.4 10.3 3.43 10.4 3.1 11.03C2.85 11.5 2.55 11.73 2.15 11.73C1.8 11.73 1.2 12.03 0.77 12.38C0 13 0 13.05 0 15.36C0 17.59 0.02 17.74 0.65 18.21C1.03 18.51 1.65 18.74 2.05 18.74C3.15 18.74 3.45 19.79 2.75 21.07C1.95 22.47 2.2 23.34 3.88 24.99C5.08 26.2 5.38 26.37 6.26 26.37C6.93 26.37 7.43 26.2 7.79 25.84C8.24 25.37 8.41 25.34 9.04 25.57C9.46 25.74 9.76 26.05 9.76 26.32C9.76 27.82 11.29 29 13.27 29C13.33 29 13.67 29 14.27 29C14.27 28.9 14.27 28.38 14.27 27.45L14.27 25.92L17.9 22.27C20.06 20.07 21.27 18.85 21.51 18.61C21.76 17.52 21.9 16.91 21.93 16.78C22.48 14.38 22.91 13.88 24.93 13.33C25.05 13.3 25.61 13.15 26.61 12.88C26.21 12.53 25.98 12.34 25.94 12.3C25.56 11.98 24.99 11.73 24.66 11.73C24.23 11.73 23.93 11.5 23.68 11.03C23.33 10.37 23.36 10.27 23.81 9.83C24.08 9.55 24.36 8.93 24.43 8.45C24.56 7.72 24.43 7.4 23.73 6.47C22.11 4.32 20.45 3.72 19.03 4.72C18.02 5.42 17.15 5.07 16.92 3.87C16.82 3.34 16.45 2.74 16 2.37C15.32 1.79 15.02 1.71 13.44 1.74C12.44 1.74 11.39 1.86 11.09 2.01C10.51 2.29 9.76 3.62 9.76 4.32C9.76 4.54 9.49 4.84 9.14 4.97ZM8.59 18.24C6.53 14.86 8.29 10.68 12.14 9.7C13.17 9.43 14.95 9.68 16.02 10.22C20.05 12.3 20.08 18.21 16.05 20.29C13.29 21.74 10.16 20.87 8.59 18.24Z" id="c2cARU1tiA"></path><path d="M22.93 16.91C22.9 17.04 22.75 17.69 22.48 18.86C20.32 21.06 19.12 22.27 18.88 22.52C15.32 26.1 15.27 26.17 15.27 27.27C15.27 28.55 15.72 29.32 16.77 29.88C18.55 30.8 19.45 30.3 23.76 25.89C23.95 25.7 24.9 24.73 26.61 22.99C26.76 22.95 27.47 22.76 28.77 22.42C30.06 22.09 30.78 21.9 30.92 21.87C31.25 20.89 31.43 20.35 31.47 20.24C32.2 18.16 32.17 16.13 31.42 16.03C31.09 15.98 30.54 16.33 29.92 16.98C28.92 18.01 28.36 18.21 27.84 17.69C27.29 17.13 27.54 16.38 28.59 15.31C29.47 14.41 29.62 14.13 29.39 13.78C29.02 13.2 27.74 13.18 25.81 13.73C24.93 14 24.03 14.38 23.81 14.58C23.56 14.81 23.18 15.86 22.93 16.91Z" id="d5HTUwsli"></path><path d="M22.93 16.91C22.9 17.04 22.75 17.69 22.48 18.86C20.32 21.06 19.12 22.27 18.88 22.52C15.32 26.1 15.27 26.17 15.27 27.27C15.27 28.55 15.72 29.32 16.77 29.88C18.55 30.8 19.45 30.3 23.76 25.89C23.95 25.7 24.9 24.73 26.61 22.99C26.76 22.95 27.47 22.76 28.77 22.42C30.06 22.09 30.78 21.9 30.92 21.87C31.25 20.89 31.43 20.35 31.47 20.24C32.2 18.16 32.17 16.13 31.42 16.03C31.09 15.98 30.54 16.33 29.92 16.98C28.92 18.01 28.36 18.21 27.84 17.69C27.29 17.13 27.54 16.38 28.59 15.31C29.47 14.41 29.62 14.13 29.39 13.78C29.02 13.2 27.74 13.18 25.81 13.73C24.93 14 24.03 14.38 23.81 14.58C23.56 14.81 23.18 15.86 22.93 16.91Z" id="bFzgyoZTo"></path></defs><g><g><g><use xlink:href="#bn8yLsgy3" opacity="1" fill="#000000" fill-opacity="1"></use><g><use xlink:href="#bn8yLsgy3" opacity="1" fill-opacity="0" stroke="#000000" stroke-width="1" stroke-opacity="0"></use></g></g><g><use xlink:href="#c2cARU1tiA" opacity="1" fill="#000000" fill-opacity="0"></use><g><use xlink:href="#c2cARU1tiA" opacity="1" fill-opacity="0" stroke="#000000" stroke-width="1" stroke-opacity="0"></use></g></g><g><use xlink:href="#d5HTUwsli" opacity="1" fill="#000000" fill-opacity="1"></use><g><use xlink:href="#d5HTUwsli" opacity="1" fill-opacity="0" stroke="#000000" stroke-width="1" stroke-opacity="0"></use></g></g><g><use xlink:href="#bFzgyoZTo" opacity="1" fill="#000000" fill-opacity="0"></use><g><use xlink:href="#bFzgyoZTo" opacity="1" fill-opacity="0" stroke="#000000" stroke-width="1" stroke-opacity="0"></use></g></g></g></g></svg>