<?xml version="1.0" encoding="UTF-8" standalone="no"?>
<!DOCTYPE svg PUBLIC "-//W3C//DTD SVG 1.1//EN" "http://www.w3.org/Graphics/SVG/1.1/DTD/svg11.dtd">
<svg version="1.1" xmlns="http://www.w3.org/2000/svg" xmlns:xlink="http://www.w3.org/1999/xlink" preserveAspectRatio="xMidYMid meet" viewBox="0 0 128 128" width="128" height="128"><defs><path d="M113.57 97.3C113.57 107.42 104.22 116.39 93.94 116.39C83.41 116.39 74.85 107.83 74.85 97.3C74.85 86.78 83.41 78.22 93.94 78.22C94.62 78.22 98.05 78.22 104.21 78.22L104.21 39.75L50.26 54.07C50.26 86.98 50.26 105.26 50.26 108.92C50.26 119.03 40.91 128 30.63 128C20.1 128 11.54 119.44 11.54 108.92C11.54 98.39 20.1 89.83 30.63 89.83C31.31 89.83 34.74 89.83 40.9 89.83L40.9 20.69L41.96 20.38L111.7 0.55L113.57 0C113.57 58.38 113.57 90.82 113.57 97.3Z" id="dGWY4sXeC"></path></defs><g><g><g><use xlink:href="#dGWY4sXeC" opacity="1" fill="#000000" fill-opacity="1"></use><g><use xlink:href="#dGWY4sXeC" opacity="1" fill-opacity="0" stroke="#000000" stroke-width="1" stroke-opacity="0"></use></g></g></g></g></svg>