<?xml version="1.0" encoding="UTF-8" standalone="no"?>
<!DOCTYPE svg PUBLIC "-//W3C//DTD SVG 1.1//EN" "http://www.w3.org/Graphics/SVG/1.1/DTD/svg11.dtd">
<svg version="1.1" xmlns="http://www.w3.org/2000/svg" xmlns:xlink="http://www.w3.org/1999/xlink" preserveAspectRatio="xMidYMid meet" viewBox="0 0 64 64" width="64" height="64"><defs><path d="M38.37 25.6C38.37 14.08 38.37 7.68 38.37 6.4C38.37 2.87 35.51 0 31.97 0C28.44 0 25.57 2.87 25.57 6.4C25.57 7.68 25.57 14.08 25.57 25.6C14.07 25.6 7.68 25.6 6.4 25.6C2.87 25.6 0 28.47 0 32C0 35.53 2.87 38.4 6.4 38.4C7.68 38.4 14.07 38.4 25.58 38.4C25.58 49.92 25.58 56.32 25.58 57.6C25.58 61.13 28.44 64 31.98 64C35.51 64 38.38 61.13 38.38 57.6C38.38 56.32 38.38 49.92 38.38 38.4C49.91 38.4 56.32 38.4 57.6 38.4C61.13 38.4 64 35.53 64 32C64 28.47 61.13 25.6 57.6 25.6C55.04 25.6 48.63 25.6 38.37 25.6Z" id="bFqjCsVqK"></path></defs><g><g><g><use xlink:href="#bFqjCsVqK" opacity="1" fill="#000000" fill-opacity="1"></use><g><use xlink:href="#bFqjCsVqK" opacity="1" fill-opacity="0" stroke="#000000" stroke-width="1" stroke-opacity="0"></use></g></g></g></g></svg>