<?xml version="1.0" encoding="UTF-8"?>
<svg xmlns="http://www.w3.org/2000/svg" xmlns:xlink="http://www.w3.org/1999/xlink" width="64pt" height="64pt" viewBox="0 0 64 64" version="1.1">
<g id="surface1">
<path style=" stroke:none;fill-rule:nonzero;fill:rgb(2.352941%,52.941176%,100%);fill-opacity:1;" d="M 18.261719 8.929688 C 16.769531 7.269531 14.21875 7.089844 12.511719 8.53125 C -0.0703125 19.449219 -1.421875 38.5 9.5 51.089844 C 20.421875 63.671875 39.480469 65.019531 52.058594 54.101562 C 64.640625 43.171875 65.988281 24.121094 55.070312 11.539062 C 54.089844 10.398438 53.019531 9.339844 51.878906 8.371094 C 50.128906 6.878906 47.511719 7.078125 46.019531 8.828125 C 44.53125 10.570312 44.730469 13.191406 46.480469 14.679688 C 51.351562 18.839844 54.148438 24.910156 54.148438 31.308594 C 54.148438 43.371094 44.339844 53.171875 32.28125 53.171875 C 20.230469 53.171875 10.421875 43.359375 10.421875 31.308594 C 10.421875 24.96875 13.171875 18.949219 17.960938 14.789062 C 19.660156 13.261719 19.800781 10.628906 18.261719 8.929688 Z M 18.261719 8.929688 "/>
<path style=" stroke:none;fill-rule:nonzero;fill:rgb(2.352941%,52.941176%,100%);fill-opacity:1;" d="M 36.441406 4.148438 C 36.441406 1.859375 34.578125 0 32.28125 0 C 29.988281 0 28.128906 1.859375 28.128906 4.148438 C 28.128906 7.058594 28.128906 30.351562 28.128906 33.261719 C 28.128906 35.558594 29.988281 37.421875 32.28125 37.421875 C 34.578125 37.421875 36.441406 35.558594 36.441406 33.261719 C 36.441406 27.441406 36.441406 7.058594 36.441406 4.148438 Z M 36.441406 4.148438 "/>
</g>
</svg>
