<?xml version="1.0" encoding="UTF-8" standalone="no"?>
<!DOCTYPE svg PUBLIC "-//W3C//DTD SVG 1.1//EN" "http://www.w3.org/Graphics/SVG/1.1/DTD/svg11.dtd">
<svg version="1.1" xmlns="http://www.w3.org/2000/svg" xmlns:xlink="http://www.w3.org/1999/xlink" preserveAspectRatio="xMidYMid meet" viewBox="0 0 64 64" width="64" height="64"><defs><path d="M26.45 44.91C26.88 45.43 27.52 45.72 28.19 45.71C28.19 45.71 28.19 45.71 28.19 45.71C28.88 45.7 29.52 45.37 29.94 44.82C31.7 42.54 45.77 24.25 47.53 21.97C48.3 20.97 48.11 19.53 47.11 18.76C46.11 17.99 44.68 18.18 43.91 19.18C42.85 20.55 37.56 27.41 28.05 39.75C23.16 34.01 20.45 30.82 19.91 30.18C19.22 29.12 17.8 28.82 16.75 29.51C15.69 30.2 15.39 31.62 16.08 32.68C16.19 32.85 16.32 33.01 16.48 33.14C18.47 35.5 24.45 42.56 26.45 44.91Z" id="dau5IELU"></path><path d="M64 32C64 14.33 49.67 0 32 0C14.33 0 0 14.33 0 32C0 49.67 14.33 64 32 64C49.67 64 64 49.67 64 32ZM59.43 32C59.43 47.15 47.15 59.43 32 59.43C16.85 59.43 4.57 47.15 4.57 32C4.57 16.85 16.85 4.57 32 4.57C47.15 4.57 59.43 16.85 59.43 32Z" id="hdPEqNn1a"></path></defs><g><g><g><use xlink:href="#dau5IELU" opacity="1" fill="#000000" fill-opacity="1"></use><g><use xlink:href="#dau5IELU" opacity="1" fill-opacity="0" stroke="#000000" stroke-width="1" stroke-opacity="0"></use></g></g><g><use xlink:href="#hdPEqNn1a" opacity="1" fill="#000000" fill-opacity="1"></use><g><use xlink:href="#hdPEqNn1a" opacity="1" fill-opacity="0" stroke="#000000" stroke-width="1" stroke-opacity="0"></use></g></g></g></g></svg>