<?xml version="1.0" standalone="no"?>
<!DOCTYPE svg PUBLIC "-//W3C//DTD SVG 20010904//EN"
 "http://www.w3.org/TR/2001/REC-SVG-20010904/DTD/svg10.dtd">
<svg version="1.0" xmlns="http://www.w3.org/2000/svg"
 width="128.000000pt" height="128.000000pt" viewBox="0 0 128.000000 128.000000"
 preserveAspectRatio="xMidYMid meet">
<metadata>
Created by potrace 1.15, written by Peter Selinger 2001-2017
</metadata>
<g transform="translate(0.000000,128.000000) scale(0.100000,-0.100000)"
fill="#000000" stroke="none">
<path d="M443 1198 c-23 -11 -53 -64 -53 -92 0 -9 -11 -21 -25 -26 -19 -7 -33
-5 -58 10 -54 33 -93 25 -155 -34 -66 -61 -78 -116 -38 -163 22 -26 23 -30 10
-55 -10 -19 -22 -28 -38 -28 -14 0 -38 -12 -55 -26 -31 -25 -31 -27 -31 -119
0 -89 1 -95 26 -114 15 -12 40 -21 56 -21 44 0 56 -42 28 -93 -32 -56 -22 -91
45 -157 48 -48 60 -55 95 -55 27 0 47 7 61 21 18 19 25 20 50 11 17 -7 29 -19
29 -30 0 -60 61 -107 140 -107 l40 0 0 62 0 61 145 146 144 146 17 73 c22 96
39 116 120 138 l67 18 -27 23 c-15 13 -38 23 -51 23 -17 0 -29 9 -39 28 -14
26 -13 30 5 48 11 11 22 36 25 55 5 29 0 42 -28 79 -65 86 -131 110 -188 70
-40 -28 -75 -14 -84 34 -4 21 -19 45 -37 60 -27 23 -39 26 -102 25 -40 0 -82
-5 -94 -11z m197 -328 c161 -83 162 -319 1 -402 -110 -58 -235 -23 -298 82
-82 135 -12 302 142 341 41 11 112 1 155 -21z"/>
<path d="M1031 730 c-35 -11 -71 -26 -80 -34 -10 -9 -25 -51 -35 -93 l-18 -78
-144 -146 c-142 -143 -144 -146 -144 -190 0 -51 18 -82 60 -104 71 -37 107
-17 279 159 l114 116 86 23 86 22 22 65 c29 83 28 164 -2 168 -13 2 -35 -12
-60 -38 -40 -41 -62 -49 -83 -28 -22 22 -12 52 30 95 35 36 41 47 32 61 -15
23 -66 24 -143 2z"/>
</g>
</svg>
