<?xml version="1.0" encoding="UTF-8" standalone="no"?>
<!DOCTYPE svg PUBLIC "-//W3C//DTD SVG 1.1//EN" "http://www.w3.org/Graphics/SVG/1.1/DTD/svg11.dtd">
<svg version="1.1" xmlns="http://www.w3.org/2000/svg" xmlns:xlink="http://www.w3.org/1999/xlink" preserveAspectRatio="xMidYMid meet" viewBox="0 0 128 128" width="128" height="128"><defs><path d="M39.06 18C39.06 18.9 37.96 20.1 36.55 20.6C34.65 21.3 33.25 21.1 30.74 19.6C25.34 16.3 21.43 17.1 15.22 23.01C8.61 29.11 7.41 34.62 11.42 39.33C13.62 41.93 13.72 42.33 12.42 44.84C11.42 46.74 10.21 47.64 8.61 47.64C7.21 47.64 4.81 48.84 3.1 50.25C0 52.75 0 52.95 0 62.16C0 71.08 0.1 71.68 2.6 73.58C4.11 74.78 6.61 75.68 8.21 75.68C12.62 75.68 13.82 79.89 11.02 85C7.81 90.6 8.81 94.11 15.52 100.72C20.33 105.53 21.53 106.23 25.04 106.23C27.74 106.23 29.74 105.53 31.15 104.12C32.95 102.22 33.65 102.12 36.15 103.02C37.86 103.72 39.06 104.93 39.06 106.03C39.06 112.04 45.17 116.74 53.08 116.74C53.34 116.74 54.68 116.74 57.08 116.74L57.08 110.53L57.08 104.42L71.6 89.8L86.03 75.18C87.05 70.8 87.61 68.36 87.73 67.87C89.93 58.26 91.63 56.25 99.74 54.05C100.19 53.93 102.43 53.33 106.45 52.25C104.83 50.87 103.93 50.1 103.75 49.94C102.25 48.64 99.95 47.64 98.64 47.64C96.94 47.64 95.74 46.74 94.74 44.84C93.34 42.23 93.44 41.83 95.24 40.03C96.34 38.93 97.44 36.43 97.74 34.52C98.24 31.62 97.74 30.32 94.94 26.61C88.43 18 81.82 15.59 76.11 19.6C72.1 22.4 68.6 21 67.7 16.2C67.3 14.09 65.8 11.69 63.99 10.19C61.29 7.88 60.09 7.58 53.78 7.68C49.77 7.68 45.57 8.18 44.36 8.78C42.06 9.89 39.06 15.19 39.06 18ZM64.19 81.89C53.18 87.7 40.66 84.2 34.35 73.68C26.14 60.16 33.15 43.44 48.57 39.53C52.68 38.43 59.79 39.43 64.09 41.63C80.22 49.94 80.32 73.58 64.19 81.89Z" id="a45fPzcsJ2"></path><path d="M95.24 59.06C94.24 59.96 92.73 64.17 91.73 68.37C91.61 68.89 91.01 71.5 89.93 76.18C81.28 84.96 76.47 89.83 75.51 90.8C61.29 105.13 61.09 105.43 61.09 109.83C61.09 114.94 62.89 118.04 67.1 120.25C74.21 123.95 77.81 121.95 95.04 104.32C95.8 103.55 99.6 99.68 106.45 92.71L115.07 90.4L123.68 88.2C125 84.3 125.74 82.13 125.88 81.69C128.79 73.38 128.69 65.27 125.68 64.87C124.38 64.67 122.18 66.07 119.67 68.67C115.67 72.78 113.46 73.58 111.36 71.48C109.16 69.27 110.16 66.27 114.37 61.96C117.87 58.36 118.47 57.26 117.57 55.85C116.07 53.55 110.96 53.45 103.25 55.65C99.74 56.75 96.14 58.26 95.24 59.06Z" id="a8QfjNuWyH"></path></defs><g><g><g><use xlink:href="#a45fPzcsJ2" opacity="1" fill="#000000" fill-opacity="1"></use><g><use xlink:href="#a45fPzcsJ2" opacity="1" fill-opacity="0" stroke="#000000" stroke-width="1" stroke-opacity="0"></use></g></g><g><use xlink:href="#a8QfjNuWyH" opacity="1" fill="#000000" fill-opacity="1"></use><g><use xlink:href="#a8QfjNuWyH" opacity="1" fill-opacity="0" stroke="#000000" stroke-width="1" stroke-opacity="0"></use></g></g></g></g></svg>