<svg xmlns="http://www.w3.org/2000/svg" xmlns:xlink="http://www.w3.org/1999/xlink" version="1.1" x="0px" y="0px" viewBox="NaN NaN NaN 625"><g><path d="M448.456,1.031 L448.456,379.555 C448.457,418.893 412.062,453.794 372.068,453.793 C331.122,453.794 297.832,420.504 297.832,379.557 C297.832,338.612 331.122,305.321 372.068,305.32 L412.042,305.32 L412.042,155.68 L202.17,211.357 L202.17,424.732 C202.17,464.068 165.774,498.969 125.78,498.969 C84.835,498.969 51.544,465.678 51.544,424.732 C51.544,383.786 84.835,350.496 125.78,350.496 L165.754,350.496 L165.754,81.504 L169.871,80.306 L441.153,3.153 L448.456,1.031 z" fill="#000000"/></g><text x="NaN" y="NaN" fill="#000000" font-size="5px" font-weight="bold" font-family="'Helvetica Neue', Helvetica, Arial-Unicode, Arial, Sans-serif">Created by Anna Sophie</text><text x="NaN" y="NaN" fill="#000000" font-size="5px" font-weight="bold" font-family="'Helvetica Neue', Helvetica, Arial-Unicode, Arial, Sans-serif">from the Noun Project</text></svg>